<svg width="12" height="12" viewBox="0 0 12 12" fill="none" xmlns="http://www.w3.org/2000/svg">
<path d="M11.1501 5.17147C11.2539 5.25893 11.1914 5.23918 11.0122 5.14016C10.2089 5.23834 7.24191 8.61483 6.061 10.1194C6.04738 10.3138 5.9723 10.4871 5.82243 10.6319C5.38089 11.0584 5.56059 10.757 6.061 10.1194C6.16871 8.5817 2.43008 5.72292 1.43878 5.19676C1.32668 5.23621 1.24886 5.23121 1.21472 5.17147C1.16324 5.08138 1.25251 5.09789 1.43878 5.19676C2.27754 4.90152 5.03498 2.11723 5.76463 1.15545C5.70563 1.0223 5.71853 0.922312 5.82243 0.866226C6.01292 0.763392 5.966 0.890013 5.76463 1.15545C6.17695 2.08612 10.1013 4.6369 11.0122 5.14016C11.0697 5.13312 11.1162 5.14292 11.1501 5.17147Z" fill="white"/>
<path d="M11.1501 5.17147C11.8571 5.76702 4.84946 1.39146 5.82243 0.866226C6.79539 0.340991 1.57482 5.80163 1.21472 5.17147C0.854622 4.54131 7.38063 9.12655 5.82243 10.6319C4.26422 12.1372 10.443 4.57592 11.1501 5.17147Z" stroke="white"/>
</svg>
